<?xml version="1.0" encoding="UTF-8" standalone="no"?>
<!-- Created with Inkscape (http://www.inkscape.org/) -->

<svg
   xmlns:dc="http://purl.org/dc/elements/1.1/"
   xmlns:cc="http://creativecommons.org/ns#"
   xmlns:rdf="http://www.w3.org/1999/02/22-rdf-syntax-ns#"
   xmlns:svg="http://www.w3.org/2000/svg"
   xmlns="http://www.w3.org/2000/svg"
   xmlns:xlink="http://www.w3.org/1999/xlink"
   xmlns:sodipodi="http://sodipodi.sourceforge.net/DTD/sodipodi-0.dtd"
   xmlns:inkscape="http://www.inkscape.org/namespaces/inkscape"
   width="613.67267"
   height="322.23996"
   id="svg6830"
   version="1.1"
   inkscape:version="0.47 r22583"
   sodipodi:docname="New document 29.2010_12_15_15_56_38.0.svg">
  <defs
     id="defs6832">
    <linearGradient
       id="linearGradient7460">
      <stop
         style="stop-color:#9aadff;stop-opacity:0.58730161;"
         offset="0"
         id="stop7462" />
      <stop
         style="stop-color:#253578;stop-opacity:0;"
         offset="1"
         id="stop7464" />
    </linearGradient>
    <inkscape:perspective
       sodipodi:type="inkscape:persp3d"
       inkscape:vp_x="0 : 526.18109 : 1"
       inkscape:vp_y="0 : 1000 : 0"
       inkscape:vp_z="744.09448 : 526.18109 : 1"
       inkscape:persp3d-origin="372.04724 : 350.78739 : 1"
       id="perspective6838" />
    <inkscape:perspective
       id="perspective6908"
       inkscape:persp3d-origin="0.5 : 0.33333333 : 1"
       inkscape:vp_z="1 : 0.5 : 1"
       inkscape:vp_y="0 : 1000 : 0"
       inkscape:vp_x="0 : 0.5 : 1"
       sodipodi:type="inkscape:persp3d" />
    <inkscape:perspective
       id="perspective7549"
       inkscape:persp3d-origin="0.5 : 0.33333333 : 1"
       inkscape:vp_z="1 : 0.5 : 1"
       inkscape:vp_y="0 : 1000 : 0"
       inkscape:vp_x="0 : 0.5 : 1"
       sodipodi:type="inkscape:persp3d" />
    <inkscape:perspective
       id="perspective5710"
       inkscape:persp3d-origin="0.5 : 0.33333333 : 1"
       inkscape:vp_z="1 : 0.5 : 1"
       inkscape:vp_y="0 : 1000 : 0"
       inkscape:vp_x="0 : 0.5 : 1"
       sodipodi:type="inkscape:persp3d" />
  </defs>
  <sodipodi:namedview
     id="base"
     pagecolor="#ffffff"
     bordercolor="#666666"
     borderopacity="1.0"
     inkscape:pageopacity="0.0"
     inkscape:pageshadow="2"
     inkscape:zoom="0.49497475"
     inkscape:cx="-690.42121"
     inkscape:cy="-552.9019"
     inkscape:document-units="px"
     inkscape:current-layer="layer1"
     showgrid="false"
     inkscape:window-width="1680"
     inkscape:window-height="959"
     inkscape:window-x="0"
     inkscape:window-y="40"
     inkscape:window-maximized="1" />
  <metadata
     id="metadata6835">
    <rdf:RDF>
      <cc:Work
         rdf:about="">
        <dc:format>image/svg+xml</dc:format>
        <dc:type
           rdf:resource="http://purl.org/dc/dcmitype/StillImage" />
        <dc:title></dc:title>
      </cc:Work>
    </rdf:RDF>
  </metadata>
  <g
     inkscape:label="Layer 1"
     inkscape:groupmode="layer"
     id="layer1"
     transform="translate(-69.398774,-65.005037)">
    <g
       id="g3824">
      <rect
         inkscape:export-ydpi="90"
         inkscape:export-xdpi="90"
         inkscape:export-filename="/home/mattl/g7555.png"
         ry="23.041527"
         rx="23.041527"
         y="68.461266"
         x="72.855003"
         height="286.37326"
         width="606.76019"
         id="rect7458"
         style="fill:#ffffff;fill-opacity:1;stroke:#605eb3;stroke-width:6.91245794;stroke-linejoin:miter;stroke-miterlimit:4;stroke-opacity:1;stroke-dasharray:none" />
      <g
         inkscape:export-ydpi="90"
         inkscape:export-xdpi="90"
         transform="translate(-5.1036377,0)"
         id="g7555">
        <text
           xml:space="preserve"
           style="font-size:32px;font-style:normal;font-variant:normal;font-weight:bold;font-stretch:normal;line-height:125%;fill:#000000;fill-opacity:1;stroke:none;font-family:Futura Md BT;-inkscape-font-specification:Bitstream Vera Sans Bold"
           x="261.42859"
           y="382.36218"
           id="text7537"
           sodipodi:linespacing="125%"><tspan
             sodipodi:role="line"
             id="tspan7539"
             x="261.42859"
             y="382.36218"
             style="font-size:20px;font-style:normal;font-variant:normal;font-weight:normal;font-stretch:normal;text-align:start;line-height:125%;writing-mode:lr-tb;text-anchor:start;font-family:GentiumAlt;-inkscape-font-specification:GentiumAlt">visit fsf.org/fb | based on an image by watblog.com</tspan></text>
        <image
           y="369.14929"
           x="85.428574"
           id="image7551"
           height="15"
           width="80"
           xlink:href="file:///home/mattl/campaigns.fsf.org/campaigns/playfreedom/inkscape_pasted_image_20101215_155301.png"
           style="opacity:0.60251046" />
      </g>
      <g
         transform="matrix(0.7519111,0,0,-0.7519111,528.19634,608.14647)"
         id="g5732"
         inkscape:export-ydpi="90"
         inkscape:export-xdpi="90"
         inkscape:export-filename="/home/mattl/g7555.png">
        <g
           id="g5716">
          <path
             style="fill:#e1e2e3"
             d="m -420.80341,621.64069 -12.87483,-9.9928 -20.37517,0 -20.37518,0 0,5.56574 c 0,5.4443 -1.19596,9.19747 -3.3997,10.66895 -0.60517,0.40408 -19.8878,0.74158 -42.8503,0.75 -40.42736,0.0148 -41.81336,-0.048 -43.75,-1.98469 -1.96389,-1.96389 -2,-3.33333 -2,-75.84501 0,-70.26986 0.0885,-73.92514 1.82874,-75.5 1.64053,-1.48466 6.14924,-1.65499 43.80887,-1.65499 34.4266,0 42.32501,0.25218 43.89686,1.40154 1.52159,1.11262 1.99465,2.94469 2.29473,8.88715 l 0.378,7.4856 6.1464,-1.43127 c 11.44124,-2.66423 26.37306,-11.31545 32.17173,-18.63971 1.39485,-1.76182 12.42823,-24.35331 24.51863,-50.20331 12.0904,-25.85 22.73758,-47.5625 23.66042,-48.25 1.20503,-0.89773 7.05669,-1.25 20.76424,-1.25 15.65619,0 19.48579,0.27977 21.30887,1.5567 2.13208,1.49337 2.2219,2.17487 2.2075,16.75 -0.0132,13.34248 -0.3177,16.16784 -2.49986,23.1933 -2.30872,7.43293 -2.48487,9.46706 -2.48499,28.69682 l -1.4e-4,20.69683 22.25,0.30444 22.25,0.30445 9.5,5.37982 c 5.225,2.9589 10.2875,6.06557 11.25,6.90371 1.63242,1.42152 1.75,5.80638 1.75,65.26475 l 0,63.74085 -15.24891,13.60416 -15.24891,13.60417 -48.00109,-0.007 -48.00109,-0.007 -12.87482,-9.9928 0,-4e-4 z m 94.94968,-28.65811 c 4.5868,-0.6287 5.61286,-1.40764 18.63957,-14.15042 l 13.78557,-13.4851 0,-40.81565 0,-40.81564 -7.25,-4.02072 -7.25,-4.02072 -24.34571,-0.0132 c -19.43567,-0.0105 -24.88102,-0.30741 -27,-1.47193 -1.45986,-0.80229 -5.97303,-2.35853 -10.02927,-3.45831 -4.05624,-1.09979 -7.5616,-2.18623 -7.78969,-2.41432 -0.22809,-0.22809 0.69946,-12.78892 2.06123,-27.91297 l 2.47595,-27.49826 8.56374,-12.98915 c 4.71006,-7.14405 8.56375,-13.51542 8.56375,-14.15861 0,-0.84553 -3.49032,-1.09192 -12.60125,-0.88957 l -12.60126,0.27988 -21.03002,44.9944 c -12.54794,26.84672 -22.33528,46.5193 -24.26621,48.77516 -9.23986,10.7947 -25.92516,20.51812 -40.31474,23.49357 l -8.18652,1.69279 0,37.27204 0,37.27204 24.28673,0 24.28673,0 10.8934,7.5 10.8934,7.5 36.6803,0 c 20.17416,0 38.8646,-0.29939 41.5343,-0.66531 z"
             id="path5730"
             sodipodi:nodetypes="cccccssssssscccssssssscccccsccccccccccccccccssscccscccscccccccccc" />
          <path
             style="fill:#8e96b9"
             d="m -414.11882,626.48102 c -3.74537,-2.84178 -9.57358,-7.34178 -12.95156,-10 l -6.1418,-4.83313 -21.1082,0 -21.10821,0 0,6.9433 c 0,10.71135 2.97636,10.0567 -45.72251,10.0567 -39.94416,0 -41.34209,-0.0646 -43.27749,-2 -1.96372,-1.96372 -2,-3.33333 -2,-75.5 0,-72.16667 0.0363,-73.53628 2,-75.5 1.93627,-1.93627 3.33333,-2 43.84501,-2 48.84542,0 45.15499,-0.88872 45.15499,10.87405 l 0,7.21658 3.75,-0.6527 c 11.70983,-2.03814 26.36302,-9.74623 34.4379,-18.11555 2.81811,-2.92087 8.79948,-14.78943 25.36086,-50.32238 11.92012,-25.575 22.50476,-47.3692 23.52143,-48.43156 1.67039,-1.74546 3.71896,-1.97442 21.26267,-2.37648 25.13319,-0.57598 23.66714,-1.68691 23.66714,17.93439 0,12.80992 -0.28165,15.07377 -3.02232,24.29287 -2.9704,9.99188 -3.01764,10.50075 -2.75,29.62365 l 0.27232,19.45713 23,0.5 23,0.5 8,4.42307 c 4.4,2.43269 9.2375,5.27583 10.75,6.31809 l 2.75,1.89503 0,63.56383 0,63.56383 -3.31111,3.12278 c -1.82112,1.71753 -8.79763,7.95816 -15.50338,13.86808 l -12.19225,10.74529 -47.43686,0 -47.43686,0 -6.80977,-5.16687 z m 108.73903,-17.50011 11.9512,-10.66698 -0.0108,-57.58302 -0.0108,-57.58302 -7.23922,-3.77193 -7.23922,-3.77193 -23.81574,0.0219 c -23.37057,0.0215 -26.92651,-0.39382 -28.91895,-3.37777 -0.40408,-0.60517 -0.73372,-12.3503 -0.73254,-26.1003 0.002,-24.79437 0.0265,-25.08225 2.96723,-35 2.28642,-7.71115 2.96908,-12.00275 2.98254,-18.75 l 0.0175,-8.74997 -11.30887,0 c -7.49678,0 -11.86738,0.42136 -12.96572,1.25 -0.91126,0.6875 -11.12958,21.49325 -22.70737,46.235 -19.34231,41.33454 -21.47523,45.41765 -26.28428,50.31661 -10.53489,10.73184 -25.64772,18.73173 -40.16139,21.25917 l -6.88062,1.19821 0.65413,19.53131 c 0.35976,10.74223 0.65412,32.35345 0.65412,48.02495 l 0,28.49362 21.75,-0.67056 c 25.14782,-0.77532 21.24968,-1.95646 38.75,11.74135 l 11,8.60989 42.7988,0.005 42.79879,0.005 11.95121,-10.66698 0,4.5e-4 z"
             id="path5728"
             sodipodi:nodetypes="ccccccssssscccssssssccccccccccccccccccccccssscccssscccccccccccc" />
          <path
             style="fill:#7680aa"
             d="m -407.42859,630.90924 c -0.825,-0.31941 -7.17971,-5.00121 -14.12157,-10.40399 l -12.62157,-9.82323 -20.5878,0.64046 -20.5878,0.64045 -0.29063,7.06668 c -0.26275,6.38885 -0.53042,7.18931 -2.79063,8.34527 -1.93422,0.98923 -11.74242,1.22138 -43.33908,1.0258 l -40.83909,-0.25279 -1.91091,-2.36078 c -1.84191,-2.27553 -1.91092,-4.97667 -1.91092,-74.79546 l 0,-72.43467 2.45455,-2.45454 2.45454,-2.45455 40.82295,0 c 48.4103,0 45.26796,-0.73281 45.26796,10.5567 0,8.50406 -0.16632,8.39396 9,5.95782 9.3604,-2.48772 19.72601,-8.2699 26.65591,-14.86929 l 6.45299,-6.14523 21.9256,-46.87349 c 12.05907,-25.78042 22.43967,-47.49292 23.06799,-48.25 0.90133,-1.08604 5.43046,-1.37651 21.46325,-1.37651 25.11887,0 23.43925,-1.25293 23.42286,17.47251 -0.0101,11.56663 -0.34654,14.13908 -3,22.9403 -2.89522,9.60307 -2.9886,10.54829 -2.9886,30.25 l 0,20.33719 22.35127,0 22.35127,0 10.39873,5.59869 c 5.7193,3.07928 10.96123,6.31528 11.64873,7.19113 0.96974,1.2354 1.25,15.63196 1.25,64.21018 0,48.61539 -0.27952,62.95825 -1.25,64.14049 -2.25101,2.74218 -27.19566,24.52972 -29.43426,25.70893 -2.28628,1.20432 -92.26474,1.59319 -95.31574,0.41193 z m 102.18082,-21.5163 11.68083,-10.24505 0.0692,-58.0574 0.0692,-58.0574 -7.86867,-4.1926 -7.86867,-4.1926 -24.57462,0 c -24.26111,0 -24.59449,-0.0283 -26.13134,-2.22251 -1.30446,-1.86237 -1.5567,-6.12998 -1.5567,-26.33718 0,-23.89573 0.0271,-24.20469 2.9886,-34.0275 2.38395,-7.90726 2.9909,-11.7903 3,-19.19269 l 0.0114,-9.27987 -12.63461,0.27987 -12.6346,0.27988 -21.24125,45.5 c -22.73282,48.69504 -23.83274,50.54576 -34.93855,58.78782 -10.12349,7.51304 -20.69804,11.86343 -35.80099,14.72859 l -2.75,0.52169 0.003,32.23095 c 0.002,17.72702 0.29729,39.31845 0.65656,47.98095 l 0.65323,15.75 22.59344,0.0134 22.59344,0.0134 12.5,9.91253 12.5,9.91252 43.5,0.0691 43.5,0.0691 11.68082,-10.24505 2.8e-4,5e-5 z"
             id="path5726"
             sodipodi:nodetypes="ccccccsccccccccsscccsssscccccssssccccccccssscccccsccccccccccccc" />
          <path
             style="fill:#6d7cab"
             d="m -407.34667,630.92958 c -0.77995,-0.30823 -7.14369,-4.98974 -14.14164,-10.40336 l -12.72356,-9.84295 -20.60836,0.64109 -20.60836,0.6411 0,6.15009 c 0,10.83039 3.57041,10.03234 -44.88367,10.03234 -39.02977,0 -42.17296,-0.12806 -43.83062,-1.78571 -1.68191,-1.68192 -1.78571,-6.06116 -1.78571,-75.33836 l 0,-73.55264 2.36078,-1.91164 c 2.23792,-1.81216 4.47727,-1.91165 43.0275,-1.91165 48.28147,0 45.11172,-0.74974 45.11172,10.67025 l 0,7.55684 4.75,-0.69475 c 10.34078,-1.51247 24.12681,-8.75914 32.44702,-17.05589 4.61714,-4.60412 6.86982,-8.9432 26.98102,-51.97062 12.0688,-25.82089 22.42107,-47.52279 23.00506,-48.22645 0.79869,-0.96237 6.09703,-1.27938 21.38264,-1.27938 25.08943,0 23.43426,-1.21867 23.43426,17.25417 0,11.32164 -0.34839,13.98187 -3,22.90754 -2.90465,9.77742 -3,10.7458 -3,30.46833 l 0,20.36996 22.16557,0 22.16556,0 10.58444,5.59945 c 5.82143,3.07969 11.14693,6.3157 11.83443,7.19113 0.96981,1.2349 1.25,15.65628 1.25,64.33688 l 0,62.7452 -14.25,12.89731 c -7.8375,7.09351 -15.23292,13.42217 -16.43426,14.06367 -1.57902,0.84317 -14.87932,1.14448 -48,1.08741 -25.19866,-0.0434 -46.45388,-0.33113 -47.23382,-0.63936 z m 102.14774,-21.53169 11.61716,-10.25 0.0766,-58.08347 0.0766,-58.08346 -7.66691,-4.16654 -7.66692,-4.16653 -24.77638,0 c -24.46959,0 -24.79566,-0.0275 -26.33309,-2.22251 -1.30492,-1.86303 -1.55486,-6.10876 -1.5453,-26.25 0.0113,-23.78339 0.0418,-24.1282 3,-33.9403 2.39992,-7.96024 2.9886,-11.75789 2.9886,-19.27988 l 0,-9.36706 -12.68202,0.27987 -12.68203,0.27988 -21.1857,45.3451 c -13.55653,29.0159 -22.47329,46.88546 -24.76125,49.62259 -9.89284,11.83501 -25.99741,20.26562 -45.939,24.04872 l -2.75,0.52169 0.006,39.73095 c 0.003,21.85202 0.295,43.44345 0.64822,47.98095 l 0.64222,8.25 22.60179,0.0392 22.60178,0.0392 12.5,9.90646 12.5,9.90645 43.55625,0.0544 43.55624,0.0543 11.61716,-10.25 -2e-5,-1e-5 z"
             id="path5724"
             sodipodi:nodetypes="ccccccsscccscccsssssscccccscccssccccccccssscccccsccccccccccccc" />
          <path
             style="fill:#526499"
             d="m -407.36861,630.92227 c -0.79201,-0.31225 -7.09201,-5.03355 -14,-10.49178 l -12.55998,-9.92406 -10.40556,0.57073 c -5.72306,0.3139 -15.06056,0.57073 -20.75,0.57073 l -10.34444,0 0,6.30887 c 0,11.01592 3.63251,10.19113 -44.88314,10.19113 -39.02954,0 -42.17287,-0.12806 -43.83082,-1.78571 -1.68235,-1.68204 -1.78604,-6.05606 -1.78604,-75.33836 l 0,-73.55264 2.36078,-1.91164 c 2.23839,-1.81254 4.4807,-1.91165 43.25,-1.91165 48.14316,0 44.88922,-0.8056 44.88922,11.11354 l 0,7.11355 4.75,-0.69475 c 10.34696,-1.51337 24.12706,-8.75938 32.4592,-17.06805 4.6321,-4.61906 6.86671,-8.92151 27.00781,-52 12.07684,-25.83036 22.42364,-47.52679 22.99288,-48.21429 0.76593,-0.92504 6.31783,-1.25 21.35585,-1.25 25.07002,0 23.43426,-1.19309 23.43426,17.09246 0,11.14197 -0.3571,13.8495 -3,22.74583 -2.90803,9.78879 -3,10.72784 -3,30.63005 l 0,20.53166 22.12586,0 22.12587,0 11.272,6.01266 c 6.19961,3.30696 11.54297,6.71877 11.87414,7.58179 1.03706,2.70252 0.68732,124.37786 -0.36315,126.34067 -1.0018,1.87189 -24.65919,23.37381 -29.00723,26.36432 -2.24379,1.54325 -6.73024,1.69326 -48.5,1.62161 -25.31512,-0.0434 -46.6755,-0.33442 -47.46751,-0.64667 z m 102.19553,-21.52438 11.61124,-10.25 0.0666,-58.08347 0.0666,-58.08346 -7.66691,-4.16654 -7.66692,-4.16653 -24.63308,0 c -17.82574,0 -24.96471,-0.33162 -25.83309,-1.2 -0.87324,-0.87324 -1.2,-8.44973 -1.2,-27.82377 0,-25.50471 0.10508,-26.97486 2.5,-34.97623 1.89318,-6.32506 2.5,-10.62286 2.5,-17.7061 l 0,-9.35365 -12.68564,0.27987 -12.68565,0.27988 -21.24839,45.42442 c -13.3222,28.47996 -22.55743,46.99045 -24.75763,49.6226 -1.93008,2.30899 -6.34726,6.34532 -9.81596,8.96962 -10.31401,7.80323 -20.23951,11.89825 -36.55673,15.0824 l -2.25,0.43906 0.006,39.73095 c 0.003,21.85202 0.295,43.44345 0.64822,47.98095 l 0.64222,8.25 22.60179,0.0392 22.60178,0.0392 12.5,9.90646 12.5,9.90645 43.57213,0.0544 43.57213,0.0543 11.61125,-10.25 4e-5,-1e-5 z m -182.25551,-112.75 0,-11 -33.5,0 -33.5,0 0,11 0,11 33.5,0 33.5,0 0,-11 z"
             id="path5722"
             sodipodi:nodetypes="cccccccsscccscccsssssscccccssssccccccccssscccccsscccccccccccccccccccccc" />
          <path
             style="fill:#384784"
             d="m -420.9748,620.64899 -12.95379,-9.9989 -17,0.01 c -9.35,0.005 -18.6875,0.28883 -20.75,0.62974 l -3.75,0.61983 0,6.29773 c 0,4.39188 -0.47555,6.77329 -1.57143,7.86916 -1.37895,1.37887 -6.74372,1.57134 -43.8,1.57134 -31.51111,0 -42.53313,-0.30456 -43.42857,-1.2 -1.7368,-1.7368 -1.7368,-148.8632 0,-150.6 0.89592,-0.89592 12.03663,-1.2 43.96482,-1.2 49.16399,0 44.83518,-1.00742 44.83518,10.43426 0,6.38692 0.0701,6.56574 2.57368,6.56574 4.08428,0 17.39344,-4.83417 23.41672,-8.50545 3.03028,-1.847 7.87452,-5.52636 10.76498,-8.17636 5.05845,-4.63764 6.08298,-6.59814 27.34097,-52.31819 12.14707,-26.125 22.80566,-48.0625 23.68575,-48.75 2.22276,-1.73636 40.28624,-1.78165 42.0179,-0.05 0.83182,0.83182 1.1954,5.97095 1.18499,16.75 -0.0132,13.72259 -0.30702,16.49015 -2.49986,23.55 -2.30959,7.43572 -2.48487,9.4636 -2.48499,28.75 l -1.4e-4,20.75 22.10147,0 22.10147,0 10.39488,5.57575 c 5.71719,3.06666 11.07153,6.54179 11.89853,7.72251 1.2988,1.85428 1.50365,10.56107 1.50365,63.90847 l 0,61.76172 -2.75,2.98884 c -1.5125,1.64386 -8.375,7.94725 -15.25,14.00753 l -12.5,11.01869 -48.04621,0.008 -48.0462,0.008 -12.9538,-9.9989 0,4.9e-4 z m 115.89806,-11.21301 11.42517,-10.21192 0.67976,-34.03809 c 0.37386,-18.72094 0.53653,-44.81873 0.36149,-57.99508 l -0.31827,-23.95699 -7.5,-4.26013 -7.5,-4.26013 -24.31574,-0.0329 c -14.78339,-0.02 -25.07402,-0.43869 -26.25,-1.06805 -1.83884,-0.98412 -1.93352,-2.35306 -1.91925,-27.75 0.0144,-25.61728 0.11709,-27.04349 2.49986,-34.71482 1.93168,-6.21905 2.48489,-10.17718 2.48499,-17.77988 l 1.4e-4,-9.77985 -12.71992,0.27987 -12.71991,0.27988 -21.53009,45.8934 c -20.21205,43.08389 -21.86303,46.22689 -26.96888,51.34095 -10.95058,10.9682 -24.77703,18.33007 -38.53809,20.51955 l -7.52311,1.19698 0,48.27456 0,48.27456 22.9089,0 22.9089,0 12.8411,9.9731 12.8411,9.97311 43.71334,0.0269 43.71335,0.0269 11.42516,-10.21192 z m -182.35185,-58.28809 0,-65.5 -33.5,0 -33.5,0 0,65.5 0,65.5 33.5,0 33.5,0 0,-65.5 z"
             id="path5720"
             sodipodi:nodetypes="ccccccsssssssssssssscccccscccccccccccccccccssscccccscccccccccccccccccccc" />
          <path
             style="fill:#253578"
             d="m -420.6762,620.63444 -12.74762,-9.98655 -17.87738,0 c -9.83257,0 -19.28364,0.28125 -21.00239,0.625 -3.09807,0.61961 -3.125,0.6786 -3.125,6.84501 0,10.1671 3.02561,9.52999 -45.25731,9.52999 -36.4847,0 -41.79306,-0.19322 -43.17126,-1.57143 -1.40015,-1.40015 -1.57143,-9.60736 -1.57143,-75.3 0,-56.01111 0.28837,-74.01694 1.2,-74.92857 0.89537,-0.89537 11.89889,-1.2 43.34501,-1.2 48.97934,0 45.45499,-0.80084 45.45499,10.32874 l 0,6.67126 2.91091,0 c 8.73031,0 24.99531,-8.04155 34.04897,-16.83409 5.69672,-5.53242 6.34656,-6.76679 27.58153,-52.39159 11.96105,-25.69912 22.50532,-47.41162 23.43171,-48.25 1.383,-1.2516 5.0367,-1.52432 20.42136,-1.52432 11.00355,0 19.53534,0.42726 20.67126,1.03518 1.78224,0.95383 1.93425,2.23094 1.93412,16.25 -1.2e-4,13.39118 -0.29797,16.17369 -2.48499,23.21482 -2.31398,7.44986 -2.48589,9.45772 -2.49986,29.19774 l -0.015,21.19774 22.75,0.30728 22.75,0.30728 10.24887,5.80862 c 5.63688,3.19473 10.69938,6.65039 11.25,7.67923 0.63715,1.19053 1.00113,24.31015 1.00113,63.5912 l 0,61.72058 -3.80511,3.59517 c -2.0928,1.97734 -9.01619,8.20766 -15.3853,13.84516 l -11.5802,10.25 -47.8647,-0.0134 -47.8647,-0.0135 -12.74761,-9.98655 z m 116.33081,-11.60177 11.9168,-10.61523 -9.9e-4,-57.63477 -9.8e-4,-57.63478 -7.87298,-4.25 -7.87298,-4.25 -24.55461,0 c -20.98903,0 -24.78279,-0.22819 -26.12603,-1.57143 -1.34699,-1.34698 -1.57141,-5.23905 -1.57129,-27.25 1.3e-4,-24.53555 0.11074,-26.03467 2.48499,-33.67857 1.95717,-6.3011 2.48804,-10.17671 2.49986,-18.25 l 0.015,-10.25 -12.75782,0 -12.75782,0 -21.49218,46.10828 -21.49218,46.10828 -7.82773,7.38679 c -5.80398,5.47703 -10.1991,8.54995 -17,11.88583 -9.23164,4.52817 -18.71566,7.51082 -23.88237,7.51082 l -2.7899,0 -4.7e-4,48.75 -4.7e-4,48.75 22.75047,-0.30521 22.75047,-0.30521 12.95379,10.05521 12.9538,10.05521 43.87941,0 43.87942,0 11.91679,-10.61522 z m -182.0832,-57.88478 0,-65.5 -34,0 -34,0 0,65.5 0,65.5 34,0 34,0 0,-65.5 z"
             id="path5718"
             sodipodi:nodetypes="cccssssssscccssssssscccccscccccccccccccccssscccccccscccccccccccccccccccc" />
        </g>
      </g>
      <text
         inkscape:export-ydpi="90"
         inkscape:export-xdpi="90"
         inkscape:export-filename="/home/mattl/g7555.png"
         sodipodi:linespacing="125%"
         id="text5742"
         y="233.65675"
         x="331.5462"
         style="font-size:111.27288055px;font-style:normal;font-variant:normal;font-weight:bold;font-stretch:normal;line-height:125%;fill:#526499;fill-opacity:1;stroke:none;font-family:Futura Md BT;-inkscape-font-specification:Bitstream Vera Sans Bold"
         xml:space="preserve"><tspan
           style="font-size:111.27288055px;font-style:normal;font-variant:normal;font-weight:normal;font-stretch:normal;text-align:start;line-height:125%;writing-mode:lr-tb;text-anchor:start;fill:#526499;fill-opacity:1;font-family:Tahoma;-inkscape-font-specification:Tahoma"
           y="233.65675"
           x="331.5462"
           id="tspan5744"
           sodipodi:role="line">Dislike</tspan></text>
    </g>
  </g>
</svg>
